<svg xmlns="http://www.w3.org/2000/svg" viewBox="0 0 231 231"><path d="M33.83,33.83a115.5,115.5,0,1,1,0,163.34,115.49,115.49,0,0,1,0-163.34Z" style="fill:#bcf700;"/><path d="m115.5 51.75a63.75 63.75 0 0 0-10.5 126.63v14.09a115.5 115.5 0 0 0-53.729 19.027 115.5 115.5 0 0 0 128.46 0 115.5 115.5 0 0 0-53.729-19.029v-14.084a63.75 63.75 0 0 0 53.25-62.881 63.75 63.75 0 0 0-63.65-63.75 63.75 63.75 0 0 0-0.09961 0z" style="fill:#d2ad6d;"/><path d="M61.11,205.59l3.49,3.69-6.26,6.6A115.45,115.45,0,0,0,72,222.51v-22a115.19,115.19,0,0,0-10.85,5.1Z" style="fill:#efedee;"/><path d="M93.24,228.85V199l-4-4A114.43,114.43,0,0,0,72,200.49v22a114.43,114.43,0,0,0,21.28,6.34Z" style="fill:#ec0033;"/><path d="m159 222.51v-22a114.63 114.63 0 0 0-17.25-5.51l-4 4v29.86a114.16 114.16 0 0 0 21.25-6.35z" style="fill:#ec0033;"/><path d="m169.89 205.59-3.49 3.69 6.26 6.6a115.45 115.45 0 0 1-13.66 6.63v-22a115.19 115.19 0 0 1 10.85 5.1z" style="fill:#efedee;"/><path d="M115.5,219.62A28.5,28.5,0,0,1,87.25,195c2.93-.74,5.92-1.36,8.94-1.87a19.41,19.41,0,0,0,38.62,0c3,.51,6,1.13,8.94,1.87a28.49,28.49,0,0,1-28.25,24.63Z" style="fill:#f2ff05;"/><path d="m69.834 33.826c-8.2001-0.0626-16.444 2.6753-23.152 7.7038-8.5298 6.9899-12.159 19.61-12.329 32.68-0.2041 15.476 1.6092 34.752 1.7464 51.915 0.10414 13.047 0.53485 25.984-2.9197 33.995-2.4994 5.81-9.0955 9.6006-16.196 12.311 7.9599 2.8301 25.009 2.8094 33.58 1.5393 10.8-1.59 17.238-6.5294 17.159-22.699-0.0911-15.93-1.3894-29.23-1.559-45.83-0.3208-11.983-1.569-24.291 4.9774-33.987 4.2139-6.1265 10.452-10.521 17.116-13.588 3.9292-1.8575 8.0384-3.3083 12.263-4.3297-6.8718-13.574-18.732-19.618-30.687-19.709z" style="fill:#fff510;"/><path d="m90.8 76.246c11.918-17.125 31.996-23.218 49.743-17.488 11.81 3.9496 20.692 13.389 22.313 28.237 0.51051 6.2098 0.63413 12.445 0.37007 18.67-0.23973 11.2-0.72946 23.82-1.0995 34.08-0.82005 22.43 0.0593 35.1 24.589 36.3 8.5635 0.32122 17.137-0.22845 25.59-1.6405h-0.0198c-10.74-3.3799-17.98-15.609-19.3-26.289-1.29-10.41-0.6098-23.43-0.7898-38.091-0.1701-14.96 1.0398-29.819 0.28008-42.089-1.414-22.777-14.947-38.505-34.126-45.152-27.813-7.35-51.083 0.091-61.672 17.343-5.4698 8.9112-7.7413 20.07-5.8788 36.121z" style="fill:#fff510;"/><path d="m129.31 114.14 20-5.37m-47.66 5.37-20-5.37" style="fill:none;stroke-linecap:round;stroke-linejoin:round;stroke-width:4.9998px;stroke:#000;"/><path d="m115.5 131c-17.71 0.65-27 9.41-29.61 23.69-1 5.62-0.43 7.06 2.76 7.17 22.76 0.76 22.23 18.21 26.85 18.89 4.62-0.68 4.09-18.13 26.85-18.89 3.19-0.11 3.79-1.55 2.76-7.17-2.62-14.28-11.9-23-29.61-23.69zm0 29.31c-10 0-18-5-18-11.17s8.08-11.17 18-11.17 18 5 18 11.17-8.08 11.17-18 11.17z" style="fill:#56442b;"/><path d="m123.54 148.46a11.53 11.53 0 0 1-16.09 0" style="fill:none;stroke-linecap:round;stroke-linejoin:round;stroke-width:6.7998px;stroke:#000;"/></svg>