<svg xmlns="http://www.w3.org/2000/svg" viewBox="0 0 231 231"><path d="M33.83,33.83a115.5,115.5,0,1,1,0,163.34,115.49,115.49,0,0,1,0-163.34Z" style="fill:#ff2c2c;"/><path d="m115.5 51.75a63.75 63.75 0 0 0-10.5 126.63v14.09a115.5 115.5 0 0 0-53.729 19.027 115.5 115.5 0 0 0 128.46 0 115.5 115.5 0 0 0-53.729-19.029v-14.084a63.75 63.75 0 0 0 53.25-62.881 63.75 63.75 0 0 0-63.65-63.75 63.75 63.75 0 0 0-0.09961 0z" style="fill:#f2c280;"/><path d="m141.75 195a114.79 114.79 0 0 1 38 16.5 115.53 115.53 0 0 1-128.46 0 114.79 114.79 0 0 1 38-16.5c0 10.76 11.75 19.48 26.25 19.48s26.25-8.72 26.25-19.48z" style="fill:#f06;"/><path d="m92.502 194.27v0.70391c0 4.3033 2.4373 8.2583 6.3807 11.183 4.2199 3.1204 10.106 5.0508 16.661 5.0508 6.548 0 12.434-1.9303 16.654-5.0508 3.9434-2.9245 6.388-6.8795 6.388-11.183v-0.67489c1.0768 0.21771 2.1463 0.44994 3.2158 0.69666h-7e-3c1.0695 0.24672 2.1318 0.50798 3.1867 0.791-0.27648 6.103-3.6524 11.553-8.9708 15.493-5.2821 3.9114-12.521 6.328-20.466 6.328-7.9449 0-15.184-2.4165-20.474-6.328-5.333-3.9477-8.7089-9.4194-8.9708-15.544 1.055-0.27577 2.1099-0.53702 3.1722-0.78376 1.0695-0.23947 2.1463-0.46443 3.2304-0.68213z" style="fill:#8e0039;"/><path d="m32.902 67.662c-0.36295 1.7227-6.2342 30.695 5.6133 52.596 4.5843 8.4743 9.0081 13.239 12.75 15.893a67.7 67.7 0 0 1-3.4688-21.35 67.7 67.7 0 0 1 2.332-17.658c-4.4914-2.4646-10.868-6.9012-13.834-13.52-4.1626-9.285-3.6155-14.673-3.3926-15.961zm165.19 0c0.22292 1.2882 0.77005 6.6759-3.3926 15.961-2.9664 6.6183-9.3426 11.055-13.834 13.52a67.7 67.7 0 0 1 2.332 17.658 67.7 67.7 0 0 1-3.4688 21.35c3.7419-2.6532 8.1657-7.4183 12.75-15.893 11.847-21.9 5.9762-50.873 5.6133-52.596z" style="fill:#fff;"/><path d="m115.73 13.191c-7.3787-0.13351-13.509 5.7888-13.631 13.168-0.10128 5.8827 3.4508 10.518 8.0566 12.52 1.061 0.46115 2.1869 0.78009 3.3418 0.95703v8.4291c0.66778-0.02035 1.3358-0.03077 2.0039-0.03125 0.66547-9e-5 1.3309 0.0097 1.9961 0.0293v-8.4115c2.6002-0.38406 5.1586-1.5484 7.3086-3.625 4.2322-4.0878 4.9991-9.8755 3.1582-14.549-1.8407-4.6726-6.3502-8.3834-12.232-8.4863z" style="fill:#fff;"/><path d="m83.527 103.98v10h10v-10h-10zm53.945 0v10h10v-10h-10z" style="fill:none;"/><path d="m56.621 94.906v11.688h5.3418v6.4922h5.3418v6.1055h5.3223v6.2324h26.846v-6.2324h5.3047v-6.1055h5.1445v-6.0039h11.154v6.0039h5.1446v6.1055h5.3066v6.2324h26.846v-6.2324h5.3203v-6.1055h5.3438v-6.4922h5.3418v-11.688z" style="fill:#000;"/><path d="m67.387 100.65v5.9394h5.1992v-5.9394zm5.1992 5.9394v6.4922h5.4238v-6.4922zm5.4238 0h5.1992v-5.9394h-5.1992zm5.1992 0v6.4922h5.4258v-6.4922zm5.4258 6.4922v6.1055h5.1426v-6.1055zm-10.625 0v6.1055h5.1445v-6.1055zm48.281-12.432v5.9394h5.1992v-5.9394zm5.1992 5.9394v6.4922h5.4238v-6.4922zm5.4238 0h5.1992v-5.9394h-5.1992zm5.1992 0v6.4922h5.4258v-6.4922zm5.4258 6.4922v6.1055h5.1426v-6.1055zm-10.625 0v6.1055h5.1445v-6.1055z" style="fill:#fff;"/><path d="m100.19 152.09c2.8726 4.0616 9.8095 4.7232 15.119-0.45432 5.0656 4.5134 11.167 5.6898 15.495 0.31458" style="fill:none;stroke-linecap:round;stroke-linejoin:round;stroke-width:5.8949;stroke:#222;"/><path d="m109.67 135.53c-0.9758 0.0743-2.05 0.45327-3.1485 0.99414-4.3235 2.1399-7.3862 4.2557-10.639 7.1406-0.6251 0.5715 0.1168 0.77785 1.4238 0.87304 5.6967 0.0536 14.384 0.41404 15.098-0.875 1.9251-2.0788 1.7969-5.3303-0.1816-7.3008-0.701-0.67533-1.5769-0.90632-2.5527-0.83203zm11.656 0c-0.9758-0.0743-1.8517 0.1567-2.5527 0.83203-1.9785 1.9705-2.1067 5.222-0.1817 7.3008 0.7142 1.289 9.401 0.9286 15.098 0.875 1.307-0.0952 2.0489-0.30154 1.4238-0.87304-3.2524-2.8849-6.3151-5.0007-10.639-7.1406-1.0985-0.54087-2.1727-0.91985-3.1485-0.99414z" style="fill:#fff;"/></svg>