<svg xmlns="http://www.w3.org/2000/svg" viewBox="0 0 231 231"><path d="M33.83,33.83a115.5,115.5,0,1,1,0,163.34,115.49,115.49,0,0,1,0-163.34Z" style="fill:#0079b1;"/><path d="m115.5 51.75a63.75 63.75 0 0 0-10.5 126.63v14.09a115.5 115.5 0 0 0-53.729 19.027 115.5 115.5 0 0 0 128.46 0 115.5 115.5 0 0 0-53.729-19.029v-14.084a63.75 63.75 0 0 0 53.25-62.881 63.75 63.75 0 0 0-63.65-63.75 63.75 63.75 0 0 0-0.09961 0z" style="fill:#b35f49;"/><path d="m91.92 194.41a101.47 101.47 0 0 1 23.58 17.09 101.47 101.47 0 0 1 23.58-17.09c0.89 0.19 1.78 0.38 2.67 0.59a114.79 114.79 0 0 1 38 16.5 115.53 115.53 0 0 1-128.46 0 114.79 114.79 0 0 1 38-16.5c0.88-0.21 1.78-0.4 2.67-0.59z" style="fill:#ff0000;"/><path d="m73.65 199.82c16.59 8.23 28.72 18.91 34.27 30.93a114.86 114.86 0 0 1-56.65-19.25 115.06 115.06 0 0 1 22.38-11.68z" style="fill:#ffc107;"/><path d="m60.63 205.85c12.35 5.94 21.93 13.44 27.59 21.91a114.7 114.7 0 0 1-36.95-16.26q4.53-3 9.36-5.65z" style="fill:#ff0000;"/><path d="m157.35 199.82c-16.6 8.23-28.72 18.91-34.27 30.93a114.86 114.86 0 0 0 56.65-19.25 115.06 115.06 0 0 0-22.38-11.68z" style="fill:#ffc107;"/><path d="m170.37 205.85c-12.35 5.94-21.93 13.44-27.59 21.91a114.7 114.7 0 0 0 36.95-16.26q-4.53-3-9.36-5.65z" style="fill:#ff0000;"/><path d="m43.891 77.836c-5.1124 28.237 2.1347 61.004 24.792 81.332-6.2362-12.503-9.5362-33.948-9.4887-45.458-0.50203-37.473 41.439-46.335 56.149-17.614 18.8-31.2 52.825-16.872 54.062 13.714 0.56018 13.844-0.43568 25.598-7.0962 48.966 18.372-12.47 28.012-53.959 23.545-80.941-47.486-2.2552-94.831-2.5724-141.96 0z" style="fill:#8eff45;"/><path d="m111.26 12.782c-18.508 0.0791-32.594 3.6163-32.594 3.6163 24.513 5.6002 32.807 10.504 31.743 19.835-0.87227 9.702-11.092 10.875-20.811 11.554-5.2548 0.36414-10.949 0.71523-16.391 1.7525-11.862 2.2818-19.946 4.3736-24.447 11.956-1.7012 2.8662-3.7945 10.428-4.8689 16.34h141.96c-5.7242-38.563-32.557-65.073-74.595-65.054z" style="fill:#8eff45;"/><path d="m73.292 44.77c-11.788 2.2816-18.923 5.5444-23.394 13.126-2.8484 6.7586-4.8454 13.238-6.0072 19.939h141.96c-1.9772-14.576-6.8677-28.248-19.277-32.098-28.834-6.3308-63.774-6.3553-93.285-0.96761z" style="fill:none;"/><path d="m165.95 35.642c-11.178 21.829-91.89 19.36-103.98 2.3011-9.703 12.267-15.605 25.883-18.079 39.892h141.96c-3.0096-17.158-9.7424-32.688-19.902-42.193z" style="fill:none;"/><line x1="85.29" x2="85.29" y1="98.73" y2="109.79" style="fill:none;stroke-linecap:round;stroke-linejoin:round;stroke-width:8.7999px;stroke:black;"/><path d="m108.28 72.16h62.18c9.19 0 13.32 1.21 14.71 8.52 3.61 18.95 2.2 33.49-0.44 43.75a65.07 65.07 0 0 1-5.89 14.78 73.52 73.52 0 0 1-7.06 10.26c-1.8 2.27-5.17 1.21-4.19-1.09 0.14-0.47 0.27-1 0.4-1.48a14.29 14.29 0 0 0 0.52-6.62 12.52 12.52 0 0 0-3.88-6.3c-4.17-3.9-12.81-8.71-32.53-13.66-6.4-1.6-10.69-2.24-11.76-2.79a7.08 7.08 0 0 1-3.85-6.31v-9c0-2.39 0.18-4.55-1.56-6.57s-4.16-2.13-6.65-2.14a6 6 0 0 1-6-6v-9.35a6 6 0 0 1 6-6z" style="fill:#1df7ff;opacity:0.64;"/><path d="m135.9 98.73v9.27m15.22-9.29v9.29" style="fill:none;stroke-linecap:round;stroke-linejoin:round;stroke-width:7.7998px;stroke:#fcff2c;"/><path d="m115.68 160.64c7.08 0 13.11-4.93 15.46-11.84a2.14 2.14 0 0 0-1.51-2.6101 2.3 2.3 0 0 0-0.73995-0.0593h-26.42a2.12 2.12 0 0 0-2.31 1.9099 1.85 1.85 0 0 0 0.0593 0.73995c2.3401 6.9301 8.3802 11.86 15.46 11.86z" style="fill:#1a1a1a;"/></svg>