<svg xmlns="http://www.w3.org/2000/svg" viewBox="0 0 231 231"><path d="M33.83,33.83a115.5,115.5,0,1,1,0,163.34,115.49,115.49,0,0,1,0-163.34Z" style="fill:#ff184e;"/><path d="m115.5 51.75a63.75 63.75 0 0 0-10.5 126.63v14.09a115.5 115.5 0 0 0-53.729 19.027 115.5 115.5 0 0 0 128.46 0 115.5 115.5 0 0 0-53.729-19.029v-14.084a63.75 63.75 0 0 0 53.25-62.881 63.75 63.75 0 0 0-63.65-63.75 63.75 63.75 0 0 0-0.09961 0z" style="fill:#cc9a5c;"/><path d="m141.75 195a114.79 114.79 0 0 1 38 16.5 115.53 115.53 0 0 1-128.46 0 114.79 114.79 0 0 1 38-16.5l26.23 13 26.27-13z" style="fill:#D67D1B;"/><polygon points="115.5 208.03 115.5 207.74 82.72 188.91 80.45 198.86 101.46 222.72" style="fill:#b8d0e0;"/><polygon points="115.5 208.03 115.5 207.74 148.28 188.91 150.55 198.86 129.54 222.72" style="fill:#b8d0e0;"/><path d="m32.902 67.662c-0.36295 1.7227-6.2342 30.695 5.6133 52.596 4.5843 8.4743 9.0081 13.239 12.75 15.893a67.7 67.7 0 0 1-3.4688-21.35 67.7 67.7 0 0 1 2.332-17.658c-4.4914-2.4646-10.868-6.9012-13.834-13.52-4.1626-9.285-3.6155-14.673-3.3926-15.961zm165.19 0c0.22292 1.2882 0.77005 6.6759-3.3926 15.961-2.9664 6.6183-9.3426 11.055-13.834 13.52a67.7 67.7 0 0 1 2.332 17.658 67.7 67.7 0 0 1-3.4688 21.35c3.7419-2.6532 8.1657-7.4183 12.75-15.893 11.847-21.9 5.9762-50.873 5.6133-52.596z" style="fill:#acfffd;"/><path d="m115.73 13.191c-7.3787-0.13351-13.509 5.7888-13.631 13.168-0.10128 5.8827 3.4508 10.518 8.0566 12.52 1.061 0.46115 2.1869 0.78009 3.3418 0.95703v8.4291c0.66778-0.02035 1.3358-0.03077 2.0039-0.03125 0.66547-9e-5 1.3309 0.0097 1.9961 0.0293v-8.4115c2.6002-0.38406 5.1586-1.5484 7.3086-3.625 4.2322-4.0878 4.9991-9.8755 3.1582-14.549-1.8407-4.6726-6.3502-8.3834-12.232-8.4863z" style="fill:#acfffd;"/><path d="m133 108.17h14.17m-63.26 0h14.09m-20.69-8.93a21.31 21.31 0 0 1 27.29 0m21.8 0a21.31 21.31 0 0 1 27.29 0" style="fill:none;stroke-linecap:round;stroke-linejoin:round;stroke-width:4.8243px;stroke:#000;"/><path d="m100.19 152.09c2.8726 4.0616 9.8095 4.7232 15.119-0.45432 5.0656 4.5134 11.167 5.6898 15.495 0.31458" style="fill:none;stroke-linecap:round;stroke-linejoin:round;stroke-width:5.8949;stroke:#222;"/><path d="m109.67 135.53c-0.9758 0.0743-2.05 0.45327-3.1485 0.99414-4.3235 2.1399-7.3862 4.2557-10.639 7.1406-0.6251 0.5715 0.1168 0.77785 1.4238 0.87304 5.6967 0.0536 14.384 0.41404 15.098-0.875 1.9251-2.0788 1.7969-5.3303-0.1816-7.3008-0.701-0.67533-1.5769-0.90632-2.5527-0.83203zm11.656 0c-0.9758-0.0743-1.8517 0.1567-2.5527 0.83203-1.9785 1.9705-2.1067 5.222-0.1817 7.3008 0.7142 1.289 9.401 0.9286 15.098 0.875 1.307-0.0952 2.0489-0.30154 1.4238-0.87304-3.2524-2.8849-6.3151-5.0007-10.639-7.1406-1.0985-0.54087-2.1727-0.91985-3.1485-0.99414z" style="fill:#fff;"/></svg>