<svg xmlns="http://www.w3.org/2000/svg" viewBox="0 0 231 231"><path d="M33.83,33.83a115.5,115.5,0,1,1,0,163.34,115.49,115.49,0,0,1,0-163.34Z" style="fill:#00a08d;"/><path d="m115.5 51.75a63.75 63.75 0 0 0-10.5 126.63v14.09a115.5 115.5 0 0 0-53.729 19.027 115.5 115.5 0 0 0 128.46 0 115.5 115.5 0 0 0-53.729-19.029v-14.084a63.75 63.75 0 0 0 53.25-62.881 63.75 63.75 0 0 0-63.65-63.75 63.75 63.75 0 0 0-0.09961 0z" style="fill:#7b401e;"/><path d="m141.75 195a114.79 114.79 0 0 1 38 16.5 115.53 115.53 0 0 1-128.46 0 114.79 114.79 0 0 1 38-16.5 115.77 115.77 0 0 1 15.71-2.53v-14.09a63.8 63.8 0 0 0 21 0v14.09a116.6 116.6 0 0 1 15.75 2.53z" style="fill:#000;"/><path d="m60.984 205.66 6.2675 2.2051 3.4074-6.819 2.8018-1.1353-3.9911 7.9907 27.222-3.0857 3.2541-11.739 2.1451-0.2692-3.2833 11.819 20.393-1.6011-14.191-15.945v-2.4379l17.606-5.7274 3.3855-0.473v1.47l-19.167 6.2295 14.731 16.542 19.839-7.7432 3.3636 0.8223-21.371 8.34 20.532 13.842 2.6777-21.687 1.9481 0.5604-2.7726 22.378 0.0584 0.0364 8.5075 4.9923-2.4807 0.85145-6.4718-3.7916-1.2987 6.0622-2.1524 0.53125 1.3425-6.2804-17.037 8.8348-5.0271 0.35661 21.59-11.193-20.962-14.133-7.5006 25.457-2.0721-0.0364 7.6392-25.915-21.05 1.652 9.0109 24.052-1.4155-0.0946-0.49615-0.0437-0.073-7e-3 -0.2043-0.0145-8.3688-22.342-10.127 19.242-1.9846-0.52399 10.514-19.962-26.04 2.9547 13.425 16.418-3.4438-1.0625-12.083-14.781-8.1645 5.9675-1.9043-1.077 8.128-5.9385-6.9898-2.4598 2.3348-1.2881zm92.509-7.2556 14.228 20.093-1.8095 0.89514-15.614-22.043z" style="fill:#00FFFF;"/><path d="m52.107 57.293c-1.3411 14.839-3.8707 52.771 1.3145 72.715-0.67572-43.829 12.389-70.177 62.078-70.187 49.689 0.010061 62.754 26.359 62.078 70.187 5.1852-19.944 2.6556-57.876 1.3145-72.715h-63.393-63.393z" style="fill:#ffe900;"/><path d="m52.339 30.629c-1.3825 24.448-2.1216 45.905-1.4497 66.517 9.4643-48.304 112.77-54.916 129.22 0 0.67191-20.612-0.3798-47.256-1.4928-66.517-32.241 14.296-91.346 18.861-126.28 0z" style="fill:#ffe900;"/><path d="m115.5 24.92c-22.25 0-44.5 4.2296-56.72 12.69-3.32 2.3-5.0602 6.4392-5.5903 10.269-0.45275 3.23-0.84043 6.7561-1.1785 10.461h126.98c-0.33704-3.7047-0.72492-7.2306-1.1775-10.461-0.53009-3.8301-2.2697-7.9992-5.5897-10.269-12.22-8.4601-34.47-12.69-56.72-12.69z" style="fill:none;"/><path d="m76.521 39.139c21.233 3.3965 33.116-13.392 37.59-31.72 4.3614 17.158 14.175 34.968 36.577 31.584-33.921 20.594-57.646 11.594-74.167 0.1345z" style="fill:#ffe900;"/><path d="m145.38 95.628c-5.1601 2.2597-11.03 2.2597-16.19 0m-47.29 1.75c5.1755-2.2694 11.065-2.2694 16.24 0" style="fill:none;stroke-linecap:round;stroke-linejoin:round;stroke-width:5.9998px;stroke:#cbbdaf;"/><path d="m90.016 106.28c-4.4506-0.0105-6.6902 5.3657-3.5508 8.5195 3.1394 3.1539 8.5252 0.93887 8.5352-3.5117 0.0063-2.7522-2.2204-4.9898-4.9727-4.9961l-0.011719-0.01172zm47.281 0c-4.4506-0.0105-6.6902 5.3657-3.5508 8.5195 3.1394 3.1539 8.5252 0.93887 8.5352-3.5117 6e-3 -2.7522-2.2204-4.9898-4.9727-4.9961l-0.01171-0.01172z" style="fill:#000;"/><path d="m115.5 161.71c-8.24 0-14.46-4.15-19.19-11.25 3.37-2.44 6.51-4.57 10-6.79a5.25 5.25 0 0 1 5.48-0.17 28.19 28.19 0 0 1 3.68 2.75 28.19 28.19 0 0 1 3.68-2.75 5.25 5.25 0 0 1 5.48 0.17c3.52 2.22 6.66 4.35 10 6.79-4.74 7.1-11 11.25-19.19 11.25z" style="fill:#d12823;"/></svg>