<svg xmlns="http://www.w3.org/2000/svg" viewBox="0 0 231 231"><path d="M33.83,33.83a115.5,115.5,0,1,1,0,163.34,115.49,115.49,0,0,1,0-163.34Z" style="fill:#00deae;"/><path d="m115.5 51.75a63.75 63.75 0 0 0-10.5 126.63v14.09a115.5 115.5 0 0 0-53.729 19.027 115.5 115.5 0 0 0 128.46 0 115.5 115.5 0 0 0-53.729-19.029v-14.084a63.75 63.75 0 0 0 53.25-62.881 63.75 63.75 0 0 0-63.65-63.75 63.75 63.75 0 0 0-0.09961 0z" style="fill:#dbc97f;"/><path d="m141.75 195a114.79 114.79 0 0 1 38 16.5 115.53 115.53 0 0 1-128.46 0 114.79 114.79 0 0 1 38-16.5c0 10.76 11.75 19.48 26.25 19.48s26.25-8.72 26.25-19.48z" style="fill:#f06;"/><path d="m92.502 194.27v0.70391c0 4.3033 2.4373 8.2583 6.3807 11.183 4.2199 3.1204 10.106 5.0508 16.661 5.0508 6.548 0 12.434-1.9303 16.654-5.0508 3.9434-2.9245 6.388-6.8795 6.388-11.183v-0.67489c1.0768 0.21771 2.1463 0.44994 3.2158 0.69666h-7e-3c1.0695 0.24672 2.1318 0.50798 3.1867 0.791-0.27648 6.103-3.6524 11.553-8.9708 15.493-5.2821 3.9114-12.521 6.328-20.466 6.328-7.9449 0-15.184-2.4165-20.474-6.328-5.333-3.9477-8.7089-9.4194-8.9708-15.544 1.055-0.27577 2.1099-0.53702 3.1722-0.78376 1.0695-0.23947 2.1463-0.46443 3.2304-0.68213z" style="fill:#8e0039;"/><path d="m137.38 11.148c-12.23 1.9593-18.511 14.606-43.436 9.4915-11.285-3.2054-16.406-3.573-20.389 0.58594-4.1548 4.3384-7.033 12.435-9.8184 21.706-2.1354 7.4136-3.7187 14.381-4.7461 21.646h112.7c-3.4878-24.293-10.822-43.281-25.182-51.061-3.5314-1.623-6.5274-2.2959-9.1289-2.3613z" style="fill:#583D00;"/><path d="m114.37 43.383c-19.445 0.088-38.524 2.0724-52.379 5.6992-1.2766 4.5795-2.4317 10.169-3.2285 16.807h113.11c-0.83731-6.0107-1.9164-11.674-3.3184-16.924-15.229-3.8842-34.873-5.6693-54.18-5.582z" style="fill:#AF892E;"/><path d="m115.5 55.773c-58.39 0-105.73 15.476-105.73 34.57h0.0312c0 11.295 16.496 21.319 42.126 27.627-0.10331-7.7704 2.788-21.904 5.2734-31.031 6.0935-1.7168 6.9294-1.8971 13.167-2.9919 14.874-2.8256 29.99-4.2037 45.133-4.1153 15.143-0.0884 30.259 1.2897 45.133 4.1153 6.2372 1.0947 7.2065 1.2751 13.3 2.9919 2.4854 9.1267 5.3768 23.26 5.2734 31.031 25.63-6.3082 41.993-16.332 41.993-27.627h0.0312c0-19.093-47.34-34.57-105.73-34.57z" style="fill:#462D00;"/><path d="m72.088 83.533c-6.9765 1.1147-13.357 2.856-18.439 4.3477-1.1861 7.415-2.0038 18.858-1.8926 26.293 4.3278-0.62795 10.155-1.3644 13.295-1.6465-0.40554 0.30198 2.7344-17.827 7.0371-28.994zm86.824 0c4.3028 11.167 7.4426 29.296 7.0371 28.994 3.1396 0.28213 8.9671 1.0185 13.295 1.6465 0.11119-7.4351-0.70652-18.878-1.8926-26.293-5.0822-1.4916-11.463-3.2329-18.439-4.3477z" style="fill:#a0a0a0;"/><path d="m83.527 103.98v10h10v-10h-10zm53.945 0v10h10v-10h-10z" style="fill:#000;"/><path d="m56.621 94.906v11.688h5.3418v6.4922h5.3418v6.1055h5.3223v6.2324h26.846v-6.2324h5.3047v-6.1055h5.1445v-6.0039h11.154v6.0039h5.1446v6.1055h5.3066v6.2324h26.846v-6.2324h5.3203v-6.1055h5.3438v-6.4922h5.3418v-11.688z" style="fill:none;"/><path d="m67.387 100.65v5.9394h5.1992v-5.9394zm5.1992 5.9394v6.4922h5.4238v-6.4922zm5.4238 0h5.1992v-5.9394h-5.1992zm5.1992 0v6.4922h5.4258v-6.4922zm5.4258 6.4922v6.1055h5.1426v-6.1055zm-10.625 0v6.1055h5.1445v-6.1055zm48.281-12.432v5.9394h5.1992v-5.9394zm5.1992 5.9394v6.4922h5.4238v-6.4922zm5.4238 0h5.1992v-5.9394h-5.1992zm5.1992 0v6.4922h5.4258v-6.4922zm5.4258 6.4922v6.1055h5.1426v-6.1055zm-10.625 0v6.1055h5.1445v-6.1055z" style="fill:none;"/><path d="m123.07 154.05a10.61 10.61 0 0 1-15 0.14l-0.14-0.14" style="fill:none;stroke-linecap:round;stroke-linejoin:round;stroke-width:6.3px;stroke:#000;"/><path d="m120.1 142.22 0.19-0.11c3-1.87 5.45-2.4 7.3-1.46 2.15 1.1 3.12 3.84 4.84 5.5a5.18 5.18 0 0 0 6.68 0.73m-28.21-4.66-0.19-0.11c-3-1.87-5.45-2.4-7.3-1.46-2.15 1.1-3.12 3.84-4.84 5.5a5.18 5.18 0 0 1-6.68 0.73" style="fill:none;stroke-linecap:round;stroke-linejoin:round;stroke-width:5.9998px;stroke:#ececec;"/></svg>