<svg xmlns="http://www.w3.org/2000/svg" viewBox="0 0 231 231"><path d="M33.83,33.83a115.5,115.5,0,1,1,0,163.34,115.49,115.49,0,0,1,0-163.34Z" style="fill:#643869;"/><path d="m115.5 51.75a63.75 63.75 0 0 0-10.5 126.63v14.09a115.5 115.5 0 0 0-53.729 19.027 115.5 115.5 0 0 0 128.46 0 115.5 115.5 0 0 0-53.729-19.029v-14.084a63.75 63.75 0 0 0 53.25-62.881 63.75 63.75 0 0 0-63.65-63.75 63.75 63.75 0 0 0-0.09961 0z" style="fill:#8c5100;"/><path d="m115.5 231a115 115 0 0 0 64.23-19.5 114.79 114.79 0 0 0-38-16.5l-2.41-9a125.19 125.19 0 0 0-13.32-2.28v8.75q3.52 0.32 7 0.84l-17.5 17.48-17.5-17.48q3.45-0.52 7-0.84v-8.75a125.55 125.55 0 0 0-13.34 2.28l-2.41 9a114.79 114.79 0 0 0-38 16.5 114.94 114.94 0 0 0 64.25 19.5z" style="fill:#ee2829;"/><path d="m132.98 193.33-36.185 36.155-2.4-0.42 36.108-36.081z" style="fill:#ff0;"/><path d="m52.107 57.293c-1.3411 14.839-3.8707 52.771 1.3145 72.715-0.67572-43.829 12.389-70.177 62.078-70.187 49.689 0.010061 62.754 26.359 62.078 70.187 5.1852-19.944 2.6556-57.876 1.3145-72.715h-63.393-63.393z" style="fill:#000;"/><path d="m52.339 30.629c-1.3825 24.448-2.1216 45.905-1.4497 66.517 9.4643-48.304 112.77-54.916 129.22 0 0.67191-20.612-0.3798-47.256-1.4928-66.517-32.241 14.296-91.346 18.861-126.28 0z" style="fill:none;"/><path d="m115.5 24.92c-22.25 0-44.5 4.2296-56.72 12.69-3.32 2.3-5.0602 6.4392-5.5903 10.269-0.45275 3.23-0.84043 6.7561-1.1785 10.461h126.98c-0.33704-3.7047-0.72492-7.2306-1.1775-10.461-0.53009-3.8301-2.2697-7.9992-5.5897-10.269-12.22-8.4601-34.47-12.69-56.72-12.69z" style="fill:#000;"/><path d="m76.521 39.139c21.233 3.3965 33.116-13.392 37.59-31.72 4.3614 17.158 14.175 34.968 36.577 31.584-33.921 20.594-57.646 11.594-74.167 0.1345z" style="fill:none;"/><path d="m83.739 83.92h63.533a19.101 19.1 0 0 1 19.051 19 19.111 19.11 0 0 1-19.051 19h-63.533a19.091 19.09 0 0 1-19.001-19 19.091 19.09 0 0 1 19.001-19z" style="fill:#FF2D00;"/><path d="m140.23 93.54a9.3804 9.38 0 1 0 9.3804 9.38 9.3804 9.38 0 0 0-9.3804-9.38zm-49.402 0a9.3804 9.38 0 1 0 9.3804 9.38 9.3904 9.39 0 0 0-9.3804-9.38z" style="fill:#fff;"/><rect x="79.795" y="98.627" width="71.471" height="8.5859" ry="4.2929" style="fill:none;"/><path d="m118.05 148.38c-1.5064 0.59192-2.595 2.0264-2.6191 3.9863-0.0574 1.3977 0.53421 3.5611 3.6758 5.7949 8.0544 4.9446 21.507 3.6862 21.255-7.1658-4.664 4.8219-10.021 5.6377-14.773 0.73907-1.2328-1.1599-2.3694-2.4032-3.9294-3.1408-1.0946-0.50424-2.2257-0.61071-3.6096-0.21337z" style="fill:#000;"/><path d="m133.61 154.93c3.0731-0.48816 5.5702-2.8457 5.4438-4.5059-0.47801-4.8311-5.7317-3.0917-4.3369-0.31405-2.8103-1.4445-1.8343-3.8862 0.50427-4.7324 2.0509-0.79942 5.0937 0.34314 6.2002 2.6376 2.2229 7.3422-3.4376 11.68-10.384 12.561z" style="fill:none;"/><path d="m112.81 148.38c1.5064 0.59192 2.595 2.0264 2.6191 3.9863 0.0574 1.3977-0.53421 3.5611-3.6758 5.7949-8.0544 4.9446-21.507 3.6862-21.255-7.1658 4.664 4.8219 10.021 5.6377 14.773 0.73907 1.2328-1.1599 2.3694-2.4032 3.9294-3.1408 1.0946-0.50424 2.2257-0.61071 3.6096-0.21337z" style="fill:#000;"/><path d="m97.252 154.93c-3.0731-0.48816-5.5702-2.8457-5.4438-4.5059 0.47801-4.8311 5.7317-3.0917 4.3369-0.31405 2.8103-1.4445 1.8343-3.8862-0.50427-4.7324-2.0509-0.79942-5.0937 0.34314-6.2002 2.6376-2.2229 7.3422 3.4376 11.68 10.384 12.561z" style="fill:none;"/></svg>