<svg xmlns="http://www.w3.org/2000/svg" viewBox="0 0 231 231"><path d="M33.83,33.83a115.5,115.5,0,1,1,0,163.34,115.49,115.49,0,0,1,0-163.34Z" style="fill:#DFFF00;"/><path d="m115.5 51.75a63.75 63.75 0 0 0-10.5 126.63v14.09a115.5 115.5 0 0 0-53.729 19.027 115.5 115.5 0 0 0 128.46 0 115.5 115.5 0 0 0-53.729-19.029v-14.084a63.75 63.75 0 0 0 53.25-62.881 63.75 63.75 0 0 0-63.65-63.75 63.75 63.75 0 0 0-0.09961 0z" style="fill:#542e02;"/><path d="m88.18 194.11c-4.2079 1.021-8.3545 2.2792-12.42 3.7695v26.072a115.5 115.5 0 0 0 79.48 0v-26.072c-4.0858-1.4904-8.2529-2.7486-12.48-3.7695v8.7051c0 9.3888-7.6112 17-17 17h-20.58c-9.3888 0-17-7.6112-17-17v-8.7051z" style="fill:#ff14e4;"/><path d="m52.107 57.293c-1.3411 14.839-3.8707 52.771 1.3145 72.715-0.67572-43.829 12.389-70.177 62.078-70.187 49.689 0.010061 62.754 26.359 62.078 70.187 5.1852-19.944 2.6556-57.876 1.3145-72.715h-63.393-63.393z" style="fill:#000;"/><path d="m52.339 30.629c-1.3825 24.448-2.1216 45.905-1.4497 66.517 9.4643-48.304 112.77-54.916 129.22 0 0.67191-20.612-0.3798-47.256-1.4928-66.517-32.241 14.296-91.346 18.861-126.28 0z" style="fill:none;"/><path d="m115.5 24.92c-22.25 0-44.5 4.2296-56.72 12.69-3.32 2.3-5.0602 6.4392-5.5903 10.269-0.45275 3.23-0.84043 6.7561-1.1785 10.461h126.98c-0.33704-3.7047-0.72492-7.2306-1.1775-10.461-0.53009-3.8301-2.2697-7.9992-5.5897-10.269-12.22-8.4601-34.47-12.69-56.72-12.69z" style="fill:#000;"/><path d="m76.521 39.139c21.233 3.3965 33.116-13.392 37.59-31.72 4.3614 17.158 14.175 34.968 36.577 31.584-33.921 20.594-57.646 11.594-74.167 0.1345z" style="fill:none;"/><path d="m70.959 94.985h35.031c2.4086 1e-5 4.3612 1.9523 4.3612 4.3606l-2.5864 17.511c-0.3515 2.3799-1.7218 4.3606-3.8457 4.3606h-30.9c-2.1239-1e-5 -3.8457-1.9523-3.8457-4.3606l-2.5864-17.511c1e-5 -2.4082 1.9526-4.3606 4.3612-4.3606z" style="fill:#9ff3ff;opacity:0.96;stroke-linecap:round;stroke-linejoin:round;stroke-width:3.0045px;stroke:#000;"/><path d="m160.05 94.985h-35.031c-2.4086 1e-5 -4.3612 1.9523-4.3612 4.3606l2.5864 17.511c0.35149 2.3799 1.7218 4.3606 3.8457 4.3606h30.9c2.1239-1e-5 3.8457-1.9523 3.8457-4.3606l2.5864-17.511c-1e-5 -2.4082-1.9526-4.3606-4.3612-4.3606z" style="fill:#9ff3ff;opacity:0.96;stroke-linecap:round;stroke-linejoin:round;stroke-width:3.0045px;stroke:#000;"/><path d="m90.607 102.35a4.6337 4.6332 0 1 0 4.6892 4.6337 4.6337 4.6332 0 0 0-4.6892-4.6337zm49.72 0a4.6337 4.6332 0 1 0 4.6444 4.6337 4.6337 4.6332 0 0 0-4.6444-4.6337z" style="fill:#2f508a;"/><path d="m70.66 94.985h-11.775" style="fill:none;stroke-linecap:round;stroke-linejoin:round;stroke-width:3.0045px;stroke:#000;"/><path d="m172.13 94.985h-19.484" style="fill:none;stroke-linecap:round;stroke-linejoin:round;stroke-width:3.0045px;stroke:#000;"/><path d="m109.32 106.2c4.2045-2.427 9.3036-1.913 12.353-0.0258" style="fill:none;stroke-linecap:round;stroke-linejoin:round;stroke-width:3.0045px;stroke:#000;"/><path d="m148.33 109.79-5.7626-8.2324" style="fill:none;stroke-linecap:round;stroke-linejoin:round;stroke-width:4;stroke:none;"/><path d="m156.27 105-2.403-3.4328" style="fill:none;stroke-linecap:round;stroke-linejoin:round;stroke-width:4;stroke:none;"/><path d="m82.748 114.34-8.9489-12.784" style="fill:none;stroke-linecap:round;stroke-linejoin:round;stroke-width:4;stroke:none;"/><path d="m91.408 109.79-5.7626-8.2324" style="fill:none;stroke-linecap:round;stroke-linejoin:round;stroke-width:4;stroke:none;"/><path d="m97.06 144.59a20.15 20.15 0 0 0 36.88 4.53z" style="fill:#fff;stroke-linecap:round;stroke-linejoin:round;stroke-width:2.9999px;stroke:#000;"/></svg>